<svg width="199" height="155" viewBox="0 0 199 155" fill="none" xmlns="http://www.w3.org/2000/svg">
<g filter="url(#filter0_f_6_172)">
<mask id="path-1-outside-1_6_172" maskUnits="userSpaceOnUse" x="10" y="10" width="179" height="135" fill="black">
<rect fill="white" x="10" y="10" width="179" height="135"/>
<path d="M65.9131 50.1895H110.664V26H139.691V50.1895H172.348V99.1738H139.691V128.807H110.664V99.1738H65.9131V128.807H36.8857V99.1738H26V50.1895H36.8857V26H65.9131V50.1895Z"/>
</mask>
<path d="M65.9131 50.1895H110.664V26H139.691V50.1895H172.348V99.1738H139.691V128.807H110.664V99.1738H65.9131V128.807H36.8857V99.1738H26V50.1895H36.8857V26H65.9131V50.1895Z" fill="#8000C0"/>
<path d="M65.9131 50.1895H49.9131V66.1895H65.9131V50.1895ZM110.664 50.1895V66.1895H126.664V50.1895H110.664ZM110.664 26V10H94.6641V26H110.664ZM139.691 26H155.691V10H139.691V26ZM139.691 50.1895H123.691V66.1895H139.691V50.1895ZM172.348 50.1895H188.348V34.1895H172.348V50.1895ZM172.348 99.1738V115.174H188.348V99.1738H172.348ZM139.691 99.1738V83.1738H123.691V99.1738H139.691ZM139.691 128.807V144.807H155.691V128.807H139.691ZM110.664 128.807H94.6641V144.807H110.664V128.807ZM110.664 99.1738H126.664V83.1738H110.664V99.1738ZM65.9131 99.1738V83.1738H49.9131V99.1738H65.9131ZM65.9131 128.807V144.807H81.9131V128.807H65.9131ZM36.8857 128.807H20.8857V144.807H36.8857V128.807ZM36.8857 99.1738H52.8857V83.1738H36.8857V99.1738ZM26 99.1738H10V115.174H26V99.1738ZM26 50.1895V34.1895H10V50.1895H26ZM36.8857 50.1895V66.1895H52.8857V50.1895H36.8857ZM36.8857 26V10H20.8857V26H36.8857ZM65.9131 26H81.9131V10H65.9131V26ZM65.9131 50.1895V66.1895H110.664V50.1895V34.1895H65.9131V50.1895ZM110.664 50.1895H126.664V26H110.664H94.6641V50.1895H110.664ZM110.664 26V42H139.691V26V10H110.664V26ZM139.691 26H123.691V50.1895H139.691H155.691V26H139.691ZM139.691 50.1895V66.1895H172.348V50.1895V34.1895H139.691V50.1895ZM172.348 50.1895H156.348V99.1738H172.348H188.348V50.1895H172.348ZM172.348 99.1738V83.1738H139.691V99.1738V115.174H172.348V99.1738ZM139.691 99.1738H123.691V128.807H139.691H155.691V99.1738H139.691ZM139.691 128.807V112.807H110.664V128.807V144.807H139.691V128.807ZM110.664 128.807H126.664V99.1738H110.664H94.6641V128.807H110.664ZM110.664 99.1738V83.1738H65.9131V99.1738V115.174H110.664V99.1738ZM65.9131 99.1738H49.9131V128.807H65.9131H81.9131V99.1738H65.9131ZM65.9131 128.807V112.807H36.8857V128.807V144.807H65.9131V128.807ZM36.8857 128.807H52.8857V99.1738H36.8857H20.8857V128.807H36.8857ZM36.8857 99.1738V83.1738H26V99.1738V115.174H36.8857V99.1738ZM26 99.1738H42V50.1895H26H10V99.1738H26ZM26 50.1895V66.1895H36.8857V50.1895V34.1895H26V50.1895ZM36.8857 50.1895H52.8857V26H36.8857H20.8857V50.1895H36.8857ZM36.8857 26V42H65.9131V26V10H36.8857V26ZM65.9131 26H49.9131V50.1895H65.9131H81.9131V26H65.9131Z" fill="#8000C0" mask="url(#path-1-outside-1_6_172)"/>
</g>
<path d="M65.9131 50.1895H110.664V26H139.691V50.1895H172.348V99.1738H139.691V128.807H110.664V99.1738H65.9131V128.807H36.8857V99.1738H26V50.1895H36.8857V26H65.9131V50.1895Z" fill="white"/>
<defs>
<filter id="filter0_f_6_172" x="0" y="0" width="198.348" height="154.807" filterUnits="userSpaceOnUse" color-interpolation-filters="sRGB">
<feFlood flood-opacity="0" result="BackgroundImageFix"/>
<feBlend mode="normal" in="SourceGraphic" in2="BackgroundImageFix" result="shape"/>
<feGaussianBlur stdDeviation="5" result="effect1_foregroundBlur_6_172"/>
</filter>
</defs>
</svg>
