<svg width="980" height="321" viewBox="0 0 980 321" fill="none" xmlns="http://www.w3.org/2000/svg">
<g filter="url(#filter0_f_6_163)">
<mask id="path-1-outside-1_6_163" maskUnits="userSpaceOnUse" x="10" y="10" width="960" height="301" fill="black">
<rect fill="white" x="10" y="10" width="960" height="301"/>
<path d="M42.9415 200.265H68.883V226.199H42.9415V304H17V174.331H42.9415V200.265Z"/>
<path d="M146.708 304H120.766V226.199H94.8245V200.265H120.766V174.331H146.708V304Z"/>
<path d="M250.473 304H198.59V278.066H250.473V304Z"/>
<path d="M380.181 200.265H354.24V304H328.298V200.265H302.357V174.331H380.181V200.265Z"/>
<path d="M483.947 304H432.064V278.066H483.947V304Z"/>
<path d="M613.654 200.265H561.771V226.199H613.654V252.133H561.771V304H535.83V174.331H613.654V200.265Z"/>
<path d="M639.596 304H613.654V252.133H639.596V304Z"/>
<path d="M691.479 304H665.537V174.331H691.479V304Z"/>
<path d="M795.245 304H717.42V278.066H795.245V304Z"/>
<path d="M924.952 200.265H899.011V304H873.069V200.265H847.128V174.331H924.952V200.265Z"/>
<path d="M198.59 278.066H172.649V200.265H198.59V278.066Z"/>
<path d="M276.415 278.066H250.473V200.265H276.415V278.066Z"/>
<path d="M432.064 278.066H406.122V200.265H432.064V278.066Z"/>
<path d="M509.888 278.066H483.947V200.265H509.888V278.066Z"/>
<path d="M821.186 278.066H795.245V252.133H821.186V278.066Z"/>
<path d="M94.8245 252.133H68.883V226.199H94.8245V252.133Z"/>
<path d="M795.245 252.133H743.362V226.199H795.245V252.133Z"/>
<path d="M639.596 226.199H613.654V200.265H639.596V226.199Z"/>
<path d="M743.362 226.199H717.42V200.265H743.362V226.199Z"/>
<path d="M250.473 200.265H198.59V174.331H250.473V200.265Z"/>
<path d="M483.947 200.265H432.064V174.331H483.947V200.265Z"/>
<path d="M821.186 200.265H743.362V174.331H821.186V200.265Z"/>
<path d="M132.872 42.9337H158.814V68.8675H132.872V146.669H106.931V17H132.872V42.9337Z"/>
<path d="M236.638 146.669H210.697V68.8675H184.755V42.9337H210.697V17H236.638V146.669Z"/>
<path d="M288.521 146.669H262.58V17H288.521V146.669Z"/>
<path d="M392.287 42.9337H340.404V120.735H392.287V146.669H314.463V17H392.287V42.9337Z"/>
<path d="M470.112 42.9337H496.053V68.8675H470.112V146.669H444.17V17H470.112V42.9337Z"/>
<path d="M547.936 146.669H521.995V94.8012H496.053V68.8675H521.995V17H547.936V146.669Z"/>
<path d="M599.819 146.669H573.878V17H599.819V146.669Z"/>
<path d="M651.702 120.735H703.585V94.8012H677.643V68.8675H729.526V146.669H651.702V120.735H625.76V42.9337H651.702V120.735Z"/>
<path d="M781.41 68.8675H833.293V17H859.234V146.669H833.293V94.8012H781.41V146.669H755.468V17H781.41V68.8675Z"/>
<path d="M963 42.9337H937.059V146.669H911.117V42.9337H885.176V17H963V42.9337Z"/>
<path d="M418.229 120.735H392.287V42.9337H418.229V120.735Z"/>
<path d="M184.755 94.8012H158.814V68.8675H184.755V94.8012Z"/>
<path d="M729.526 42.9337H651.702V17H729.526V42.9337Z"/>
</mask>
<path d="M42.9415 200.265H68.883V226.199H42.9415V304H17V174.331H42.9415V200.265Z" fill="#4340DE"/>
<path d="M146.708 304H120.766V226.199H94.8245V200.265H120.766V174.331H146.708V304Z" fill="#4340DE"/>
<path d="M250.473 304H198.59V278.066H250.473V304Z" fill="#4340DE"/>
<path d="M380.181 200.265H354.24V304H328.298V200.265H302.357V174.331H380.181V200.265Z" fill="#4340DE"/>
<path d="M483.947 304H432.064V278.066H483.947V304Z" fill="#4340DE"/>
<path d="M613.654 200.265H561.771V226.199H613.654V252.133H561.771V304H535.83V174.331H613.654V200.265Z" fill="#4340DE"/>
<path d="M639.596 304H613.654V252.133H639.596V304Z" fill="#4340DE"/>
<path d="M691.479 304H665.537V174.331H691.479V304Z" fill="#4340DE"/>
<path d="M795.245 304H717.42V278.066H795.245V304Z" fill="#4340DE"/>
<path d="M924.952 200.265H899.011V304H873.069V200.265H847.128V174.331H924.952V200.265Z" fill="#4340DE"/>
<path d="M198.59 278.066H172.649V200.265H198.59V278.066Z" fill="#4340DE"/>
<path d="M276.415 278.066H250.473V200.265H276.415V278.066Z" fill="#4340DE"/>
<path d="M432.064 278.066H406.122V200.265H432.064V278.066Z" fill="#4340DE"/>
<path d="M509.888 278.066H483.947V200.265H509.888V278.066Z" fill="#4340DE"/>
<path d="M821.186 278.066H795.245V252.133H821.186V278.066Z" fill="#4340DE"/>
<path d="M94.8245 252.133H68.883V226.199H94.8245V252.133Z" fill="#4340DE"/>
<path d="M795.245 252.133H743.362V226.199H795.245V252.133Z" fill="#4340DE"/>
<path d="M639.596 226.199H613.654V200.265H639.596V226.199Z" fill="#4340DE"/>
<path d="M743.362 226.199H717.42V200.265H743.362V226.199Z" fill="#4340DE"/>
<path d="M250.473 200.265H198.59V174.331H250.473V200.265Z" fill="#4340DE"/>
<path d="M483.947 200.265H432.064V174.331H483.947V200.265Z" fill="#4340DE"/>
<path d="M821.186 200.265H743.362V174.331H821.186V200.265Z" fill="#4340DE"/>
<path d="M132.872 42.9337H158.814V68.8675H132.872V146.669H106.931V17H132.872V42.9337Z" fill="#4340DE"/>
<path d="M236.638 146.669H210.697V68.8675H184.755V42.9337H210.697V17H236.638V146.669Z" fill="#4340DE"/>
<path d="M288.521 146.669H262.58V17H288.521V146.669Z" fill="#4340DE"/>
<path d="M392.287 42.9337H340.404V120.735H392.287V146.669H314.463V17H392.287V42.9337Z" fill="#4340DE"/>
<path d="M470.112 42.9337H496.053V68.8675H470.112V146.669H444.17V17H470.112V42.9337Z" fill="#4340DE"/>
<path d="M547.936 146.669H521.995V94.8012H496.053V68.8675H521.995V17H547.936V146.669Z" fill="#4340DE"/>
<path d="M599.819 146.669H573.878V17H599.819V146.669Z" fill="#4340DE"/>
<path d="M651.702 120.735H703.585V94.8012H677.643V68.8675H729.526V146.669H651.702V120.735H625.76V42.9337H651.702V120.735Z" fill="#4340DE"/>
<path d="M781.41 68.8675H833.293V17H859.234V146.669H833.293V94.8012H781.41V146.669H755.468V17H781.41V68.8675Z" fill="#4340DE"/>
<path d="M963 42.9337H937.059V146.669H911.117V42.9337H885.176V17H963V42.9337Z" fill="#4340DE"/>
<path d="M418.229 120.735H392.287V42.9337H418.229V120.735Z" fill="#4340DE"/>
<path d="M184.755 94.8012H158.814V68.8675H184.755V94.8012Z" fill="#4340DE"/>
<path d="M729.526 42.9337H651.702V17H729.526V42.9337Z" fill="#4340DE"/>
<path d="M42.9415 200.265H35.9415V207.265H42.9415V200.265ZM68.883 200.265H75.883V193.265H68.883V200.265ZM42.9415 226.199V219.199H35.9415V226.199H42.9415ZM42.9415 304V311H49.9415V304H42.9415ZM17 304H10V311H17V304ZM17 174.331V167.331H10V174.331H17ZM42.9415 174.331H49.9415V167.331H42.9415V174.331ZM146.708 304V311H153.708V304H146.708ZM120.766 304H113.766V311H120.766V304ZM120.766 226.199H127.766V219.199H120.766V226.199ZM94.8245 200.265V193.265H87.8245V200.265H94.8245ZM120.766 200.265V207.265H127.766V200.265H120.766ZM120.766 174.331V167.331H113.766V174.331H120.766ZM146.708 174.331H153.708V167.331H146.708V174.331ZM250.473 304V311H257.473V304H250.473ZM198.59 304H191.59V311H198.59V304ZM380.181 200.265V207.265H387.181V200.265H380.181ZM354.24 200.265V193.265H347.24V200.265H354.24ZM354.24 304V311H361.24V304H354.24ZM328.298 304H321.298V311H328.298V304ZM328.298 200.265H335.298V193.265H328.298V200.265ZM302.357 200.265H295.357V207.265H302.357V200.265ZM302.357 174.331V167.331H295.357V174.331H302.357ZM380.181 174.331H387.181V167.331H380.181V174.331ZM483.947 304V311H490.947V304H483.947ZM432.064 304H425.064V311H432.064V304ZM561.771 200.265V193.265H554.771V200.265H561.771ZM561.771 226.199H554.771V233.199H561.771V226.199ZM561.771 252.133V245.133H554.771V252.133H561.771ZM561.771 304V311H568.771V304H561.771ZM535.83 304H528.83V311H535.83V304ZM535.83 174.331V167.331H528.83V174.331H535.83ZM613.654 174.331H620.654V167.331H613.654V174.331ZM639.596 304V311H646.596V304H639.596ZM613.654 304H606.654V311H613.654V304ZM639.596 252.133H646.596V245.133H639.596V252.133ZM691.479 304V311H698.479V304H691.479ZM665.537 304H658.537V311H665.537V304ZM665.537 174.331V167.331H658.537V174.331H665.537ZM691.479 174.331H698.479V167.331H691.479V174.331ZM795.245 304V311H802.245V304H795.245ZM717.42 304H710.42V311H717.42V304ZM717.42 278.066V271.066H710.42V278.066H717.42ZM924.952 200.265V207.265H931.952V200.265H924.952ZM899.011 200.265V193.265H892.011V200.265H899.011ZM899.011 304V311H906.011V304H899.011ZM873.069 304H866.069V311H873.069V304ZM873.069 200.265H880.069V193.265H873.069V200.265ZM847.128 200.265H840.128V207.265H847.128V200.265ZM847.128 174.331V167.331H840.128V174.331H847.128ZM924.952 174.331H931.952V167.331H924.952V174.331ZM172.649 278.066H165.649V285.066H172.649V278.066ZM172.649 200.265V193.265H165.649V200.265H172.649ZM276.415 278.066V285.066H283.415V278.066H276.415ZM276.415 200.265H283.415V193.265H276.415V200.265ZM406.122 278.066H399.122V285.066H406.122V278.066ZM406.122 200.265V193.265H399.122V200.265H406.122ZM509.888 278.066V285.066H516.888V278.066H509.888ZM509.888 200.265H516.888V193.265H509.888V200.265ZM821.186 278.066V285.066H828.186V278.066H821.186ZM821.186 252.133H828.186V245.133H821.186V252.133ZM94.8245 252.133V259.133H101.825V252.133H94.8245ZM68.883 252.133H61.883V259.133H68.883V252.133ZM743.362 252.133H736.362V259.133H743.362V252.133ZM795.245 226.199H802.245V219.199H795.245V226.199ZM639.596 226.199V233.199H646.596V226.199H639.596ZM639.596 200.265H646.596V193.265H639.596V200.265ZM717.42 226.199H710.42V233.199H717.42V226.199ZM717.42 200.265V193.265H710.42V200.265H717.42ZM198.59 174.331V167.331H191.59V174.331H198.59ZM250.473 174.331H257.473V167.331H250.473V174.331ZM432.064 174.331V167.331H425.064V174.331H432.064ZM483.947 174.331H490.947V167.331H483.947V174.331ZM821.186 200.265V207.265H828.186V200.265H821.186ZM743.362 174.331V167.331H736.362V174.331H743.362ZM821.186 174.331H828.186V167.331H821.186V174.331ZM132.872 42.9337H125.872V49.9337H132.872V42.9337ZM158.814 42.9337H165.814V35.9337H158.814V42.9337ZM132.872 68.8675V61.8675H125.872V68.8675H132.872ZM132.872 146.669V153.669H139.872V146.669H132.872ZM106.931 146.669H99.9305V153.669H106.931V146.669ZM106.931 17V10H99.9305V17H106.931ZM132.872 17H139.872V10H132.872V17ZM236.638 146.669V153.669H243.638V146.669H236.638ZM210.697 146.669H203.697V153.669H210.697V146.669ZM210.697 68.8675H217.697V61.8675H210.697V68.8675ZM184.755 42.9337V35.9337H177.755V42.9337H184.755ZM210.697 42.9337V49.9337H217.697V42.9337H210.697ZM210.697 17V10H203.697V17H210.697ZM236.638 17H243.638V10H236.638V17ZM288.521 146.669V153.669H295.521V146.669H288.521ZM262.58 146.669H255.58V153.669H262.58V146.669ZM262.58 17V10H255.58V17H262.58ZM288.521 17H295.521V10H288.521V17ZM340.404 42.9337V35.9337H333.404V42.9337H340.404ZM340.404 120.735H333.404V127.735H340.404V120.735ZM392.287 146.669V153.669H399.287V146.669H392.287ZM314.463 146.669H307.463V153.669H314.463V146.669ZM314.463 17V10H307.463V17H314.463ZM392.287 17H399.287V10H392.287V17ZM470.112 42.9337H463.112V49.9337H470.112V42.9337ZM496.053 42.9337H503.053V35.9337H496.053V42.9337ZM470.112 68.8675V61.8675H463.112V68.8675H470.112ZM470.112 146.669V153.669H477.112V146.669H470.112ZM444.17 146.669H437.17V153.669H444.17V146.669ZM444.17 17V10H437.17V17H444.17ZM470.112 17H477.112V10H470.112V17ZM547.936 146.669V153.669H554.936V146.669H547.936ZM521.995 146.669H514.995V153.669H521.995V146.669ZM521.995 94.8012H528.995V87.8012H521.995V94.8012ZM496.053 94.8012H489.053V101.801H496.053V94.8012ZM521.995 68.8675V75.8675H528.995V68.8675H521.995ZM521.995 17V10H514.995V17H521.995ZM547.936 17H554.936V10H547.936V17ZM599.819 146.669V153.669H606.819V146.669H599.819ZM573.878 146.669H566.878V153.669H573.878V146.669ZM573.878 17V10H566.878V17H573.878ZM599.819 17H606.819V10H599.819V17ZM703.585 120.735V127.735H710.585V120.735H703.585ZM703.585 94.8012H710.585V87.8012H703.585V94.8012ZM677.643 94.8012H670.643V101.801H677.643V94.8012ZM677.643 68.8675V61.8675H670.643V68.8675H677.643ZM729.526 68.8675H736.526V61.8675H729.526V68.8675ZM729.526 146.669V153.669H736.526V146.669H729.526ZM651.702 146.669H644.702V153.669H651.702V146.669ZM625.76 120.735H618.76V127.735H625.76V120.735ZM625.76 42.9337V35.9337H618.76V42.9337H625.76ZM781.41 68.8675H774.41V75.8675H781.41V68.8675ZM833.293 68.8675V75.8675H840.293V68.8675H833.293ZM833.293 17V10H826.293V17H833.293ZM859.234 17H866.234V10H859.234V17ZM859.234 146.669V153.669H866.234V146.669H859.234ZM833.293 146.669H826.293V153.669H833.293V146.669ZM833.293 94.8012H840.293V87.8012H833.293V94.8012ZM781.41 94.8012V87.8012H774.41V94.8012H781.41ZM781.41 146.669V153.669H788.41V146.669H781.41ZM755.468 146.669H748.468V153.669H755.468V146.669ZM755.468 17V10H748.468V17H755.468ZM781.41 17H788.41V10H781.41V17ZM963 42.9337V49.9337H970V42.9337H963ZM937.059 42.9337V35.9337H930.059V42.9337H937.059ZM937.059 146.669V153.669H944.059V146.669H937.059ZM911.117 146.669H904.117V153.669H911.117V146.669ZM911.117 42.9337H918.117V35.9337H911.117V42.9337ZM885.176 42.9337H878.176V49.9337H885.176V42.9337ZM885.176 17V10H878.176V17H885.176ZM963 17H970V10H963V17ZM418.229 120.735V127.735H425.229V120.735H418.229ZM418.229 42.9337H425.229V35.9337H418.229V42.9337ZM184.755 94.8012V101.801H191.755V94.8012H184.755ZM158.814 94.8012H151.814V101.801H158.814V94.8012ZM729.526 42.9337V49.9337H736.526V42.9337H729.526ZM651.702 17V10H644.702V17H651.702ZM729.526 17H736.526V10H729.526V17ZM42.9415 200.265V207.265H68.883V200.265V193.265H42.9415V200.265ZM68.883 200.265H61.883V226.199H68.883H75.883V200.265H68.883ZM68.883 226.199V219.199H42.9415V226.199V233.199H68.883V226.199ZM42.9415 226.199H35.9415V304H42.9415H49.9415V226.199H42.9415ZM42.9415 304V297H17V304V311H42.9415V304ZM17 304H24V174.331H17H10V304H17ZM17 174.331V181.331H42.9415V174.331V167.331H17V174.331ZM42.9415 174.331H35.9415V200.265H42.9415H49.9415V174.331H42.9415ZM146.708 304V297H120.766V304V311H146.708V304ZM120.766 304H127.766V226.199H120.766H113.766V304H120.766ZM120.766 226.199V219.199H94.8245V226.199V233.199H120.766V226.199ZM94.8245 226.199H101.825V200.265H94.8245H87.8245V226.199H94.8245ZM94.8245 200.265V207.265H120.766V200.265V193.265H94.8245V200.265ZM120.766 200.265H127.766V174.331H120.766H113.766V200.265H120.766ZM120.766 174.331V181.331H146.708V174.331V167.331H120.766V174.331ZM146.708 174.331H139.707V304H146.708H153.708V174.331H146.708ZM250.473 304V297H198.59V304V311H250.473V304ZM198.59 304H205.59V278.066H198.59H191.59V304H198.59ZM198.59 278.066V285.066H250.473V278.066V271.066H198.59V278.066ZM250.473 278.066H243.473V304H250.473H257.473V278.066H250.473ZM380.181 200.265V193.265H354.24V200.265V207.265H380.181V200.265ZM354.24 200.265H347.24V304H354.24H361.24V200.265H354.24ZM354.24 304V297H328.298V304V311H354.24V304ZM328.298 304H335.298V200.265H328.298H321.298V304H328.298ZM328.298 200.265V193.265H302.357V200.265V207.265H328.298V200.265ZM302.357 200.265H309.357V174.331H302.357H295.357V200.265H302.357ZM302.357 174.331V181.331H380.181V174.331V167.331H302.357V174.331ZM380.181 174.331H373.181V200.265H380.181H387.181V174.331H380.181ZM483.947 304V297H432.064V304V311H483.947V304ZM432.064 304H439.064V278.066H432.064H425.064V304H432.064ZM432.064 278.066V285.066H483.947V278.066V271.066H432.064V278.066ZM483.947 278.066H476.947V304H483.947H490.947V278.066H483.947ZM613.654 200.265V193.265H561.771V200.265V207.265H613.654V200.265ZM561.771 200.265H554.771V226.199H561.771H568.771V200.265H561.771ZM561.771 226.199V233.199H613.654V226.199V219.199H561.771V226.199ZM613.654 226.199H606.654V252.133H613.654H620.654V226.199H613.654ZM613.654 252.133V245.133H561.771V252.133V259.133H613.654V252.133ZM561.771 252.133H554.771V304H561.771H568.771V252.133H561.771ZM561.771 304V297H535.83V304V311H561.771V304ZM535.83 304H542.83V174.331H535.83H528.83V304H535.83ZM535.83 174.331V181.331H613.654V174.331V167.331H535.83V174.331ZM613.654 174.331H606.654V200.265H613.654H620.654V174.331H613.654ZM639.596 304V297H613.654V304V311H639.596V304ZM613.654 304H620.654V252.133H613.654H606.654V304H613.654ZM613.654 252.133V259.133H639.596V252.133V245.133H613.654V252.133ZM639.596 252.133H632.596V304H639.596H646.596V252.133H639.596ZM691.479 304V297H665.537V304V311H691.479V304ZM665.537 304H672.537V174.331H665.537H658.537V304H665.537ZM665.537 174.331V181.331H691.479V174.331V167.331H665.537V174.331ZM691.479 174.331H684.479V304H691.479H698.479V174.331H691.479ZM795.245 304V297H717.42V304V311H795.245V304ZM717.42 304H724.42V278.066H717.42H710.42V304H717.42ZM717.42 278.066V285.066H795.245V278.066V271.066H717.42V278.066ZM795.245 278.066H788.245V304H795.245H802.245V278.066H795.245ZM924.952 200.265V193.265H899.011V200.265V207.265H924.952V200.265ZM899.011 200.265H892.011V304H899.011H906.011V200.265H899.011ZM899.011 304V297H873.069V304V311H899.011V304ZM873.069 304H880.069V200.265H873.069H866.069V304H873.069ZM873.069 200.265V193.265H847.128V200.265V207.265H873.069V200.265ZM847.128 200.265H854.128V174.331H847.128H840.128V200.265H847.128ZM847.128 174.331V181.331H924.952V174.331V167.331H847.128V174.331ZM924.952 174.331H917.952V200.265H924.952H931.952V174.331H924.952ZM198.59 278.066V271.066H172.649V278.066V285.066H198.59V278.066ZM172.649 278.066H179.649V200.265H172.649H165.649V278.066H172.649ZM172.649 200.265V207.265H198.59V200.265V193.265H172.649V200.265ZM198.59 200.265H191.59V278.066H198.59H205.59V200.265H198.59ZM276.415 278.066V271.066H250.473V278.066V285.066H276.415V278.066ZM250.473 278.066H257.473V200.265H250.473H243.473V278.066H250.473ZM250.473 200.265V207.265H276.415V200.265V193.265H250.473V200.265ZM276.415 200.265H269.415V278.066H276.415H283.415V200.265H276.415ZM432.064 278.066V271.066H406.122V278.066V285.066H432.064V278.066ZM406.122 278.066H413.122V200.265H406.122H399.122V278.066H406.122ZM406.122 200.265V207.265H432.064V200.265V193.265H406.122V200.265ZM432.064 200.265H425.064V278.066H432.064H439.064V200.265H432.064ZM509.888 278.066V271.066H483.947V278.066V285.066H509.888V278.066ZM483.947 278.066H490.947V200.265H483.947H476.947V278.066H483.947ZM483.947 200.265V207.265H509.888V200.265V193.265H483.947V200.265ZM509.888 200.265H502.888V278.066H509.888H516.888V200.265H509.888ZM821.186 278.066V271.066H795.245V278.066V285.066H821.186V278.066ZM795.245 278.066H802.245V252.133H795.245H788.245V278.066H795.245ZM795.245 252.133V259.133H821.186V252.133V245.133H795.245V252.133ZM821.186 252.133H814.186V278.066H821.186H828.186V252.133H821.186ZM94.8245 252.133V245.133H68.883V252.133V259.133H94.8245V252.133ZM68.883 252.133H75.883V226.199H68.883H61.883V252.133H68.883ZM68.883 226.199V233.199H94.8245V226.199V219.199H68.883V226.199ZM94.8245 226.199H87.8245V252.133H94.8245H101.825V226.199H94.8245ZM795.245 252.133V245.133H743.362V252.133V259.133H795.245V252.133ZM743.362 252.133H750.362V226.199H743.362H736.362V252.133H743.362ZM743.362 226.199V233.199H795.245V226.199V219.199H743.362V226.199ZM795.245 226.199H788.245V252.133H795.245H802.245V226.199H795.245ZM639.596 226.199V219.199H613.654V226.199V233.199H639.596V226.199ZM613.654 226.199H620.654V200.265H613.654H606.654V226.199H613.654ZM613.654 200.265V207.265H639.596V200.265V193.265H613.654V200.265ZM639.596 200.265H632.596V226.199H639.596H646.596V200.265H639.596ZM743.362 226.199V219.199H717.42V226.199V233.199H743.362V226.199ZM717.42 226.199H724.42V200.265H717.42H710.42V226.199H717.42ZM717.42 200.265V207.265H743.362V200.265V193.265H717.42V200.265ZM743.362 200.265H736.362V226.199H743.362H750.362V200.265H743.362ZM250.473 200.265V193.265H198.59V200.265V207.265H250.473V200.265ZM198.59 200.265H205.59V174.331H198.59H191.59V200.265H198.59ZM198.59 174.331V181.331H250.473V174.331V167.331H198.59V174.331ZM250.473 174.331H243.473V200.265H250.473H257.473V174.331H250.473ZM483.947 200.265V193.265H432.064V200.265V207.265H483.947V200.265ZM432.064 200.265H439.064V174.331H432.064H425.064V200.265H432.064ZM432.064 174.331V181.331H483.947V174.331V167.331H432.064V174.331ZM483.947 174.331H476.947V200.265H483.947H490.947V174.331H483.947ZM821.186 200.265V193.265H743.362V200.265V207.265H821.186V200.265ZM743.362 200.265H750.362V174.331H743.362H736.362V200.265H743.362ZM743.362 174.331V181.331H821.186V174.331V167.331H743.362V174.331ZM821.186 174.331H814.186V200.265H821.186H828.186V174.331H821.186ZM132.872 42.9337V49.9337H158.814V42.9337V35.9337H132.872V42.9337ZM158.814 42.9337H151.814V68.8675H158.814H165.814V42.9337H158.814ZM158.814 68.8675V61.8675H132.872V68.8675V75.8675H158.814V68.8675ZM132.872 68.8675H125.872V146.669H132.872H139.872V68.8675H132.872ZM132.872 146.669V139.669H106.931V146.669V153.669H132.872V146.669ZM106.931 146.669H113.931V17H106.931H99.9305V146.669H106.931ZM106.931 17V24H132.872V17V10H106.931V17ZM132.872 17H125.872V42.9337H132.872H139.872V17H132.872ZM236.638 146.669V139.669H210.697V146.669V153.669H236.638V146.669ZM210.697 146.669H217.697V68.8675H210.697H203.697V146.669H210.697ZM210.697 68.8675V61.8675H184.755V68.8675V75.8675H210.697V68.8675ZM184.755 68.8675H191.755V42.9337H184.755H177.755V68.8675H184.755ZM184.755 42.9337V49.9337H210.697V42.9337V35.9337H184.755V42.9337ZM210.697 42.9337H217.697V17H210.697H203.697V42.9337H210.697ZM210.697 17V24H236.638V17V10H210.697V17ZM236.638 17H229.638V146.669H236.638H243.638V17H236.638ZM288.521 146.669V139.669H262.58V146.669V153.669H288.521V146.669ZM262.58 146.669H269.58V17H262.58H255.58V146.669H262.58ZM262.58 17V24H288.521V17V10H262.58V17ZM288.521 17H281.521V146.669H288.521H295.521V17H288.521ZM392.287 42.9337V35.9337H340.404V42.9337V49.9337H392.287V42.9337ZM340.404 42.9337H333.404V120.735H340.404H347.404V42.9337H340.404ZM340.404 120.735V127.735H392.287V120.735V113.735H340.404V120.735ZM392.287 120.735H385.287V146.669H392.287H399.287V120.735H392.287ZM392.287 146.669V139.669H314.463V146.669V153.669H392.287V146.669ZM314.463 146.669H321.463V17H314.463H307.463V146.669H314.463ZM314.463 17V24H392.287V17V10H314.463V17ZM392.287 17H385.287V42.9337H392.287H399.287V17H392.287ZM470.112 42.9337V49.9337H496.053V42.9337V35.9337H470.112V42.9337ZM496.053 42.9337H489.053V68.8675H496.053H503.053V42.9337H496.053ZM496.053 68.8675V61.8675H470.112V68.8675V75.8675H496.053V68.8675ZM470.112 68.8675H463.112V146.669H470.112H477.112V68.8675H470.112ZM470.112 146.669V139.669H444.17V146.669V153.669H470.112V146.669ZM444.17 146.669H451.17V17H444.17H437.17V146.669H444.17ZM444.17 17V24H470.112V17V10H444.17V17ZM470.112 17H463.112V42.9337H470.112H477.112V17H470.112ZM547.936 146.669V139.669H521.995V146.669V153.669H547.936V146.669ZM521.995 146.669H528.995V94.8012H521.995H514.995V146.669H521.995ZM521.995 94.8012V87.8012H496.053V94.8012V101.801H521.995V94.8012ZM496.053 94.8012H503.053V68.8675H496.053H489.053V94.8012H496.053ZM496.053 68.8675V75.8675H521.995V68.8675V61.8675H496.053V68.8675ZM521.995 68.8675H528.995V17H521.995H514.995V68.8675H521.995ZM521.995 17V24H547.936V17V10H521.995V17ZM547.936 17H540.936V146.669H547.936H554.936V17H547.936ZM599.819 146.669V139.669H573.878V146.669V153.669H599.819V146.669ZM573.878 146.669H580.878V17H573.878H566.878V146.669H573.878ZM573.878 17V24H599.819V17V10H573.878V17ZM599.819 17H592.819V146.669H599.819H606.819V17H599.819ZM651.702 120.735V127.735H703.585V120.735V113.735H651.702V120.735ZM703.585 120.735H710.585V94.8012H703.585H696.585V120.735H703.585ZM703.585 94.8012V87.8012H677.643V94.8012V101.801H703.585V94.8012ZM677.643 94.8012H684.643V68.8675H677.643H670.643V94.8012H677.643ZM677.643 68.8675V75.8675H729.526V68.8675V61.8675H677.643V68.8675ZM729.526 68.8675H722.526V146.669H729.526H736.526V68.8675H729.526ZM729.526 146.669V139.669H651.702V146.669V153.669H729.526V146.669ZM651.702 146.669H658.702V120.735H651.702H644.702V146.669H651.702ZM651.702 120.735V113.735H625.76V120.735V127.735H651.702V120.735ZM625.76 120.735H632.76V42.9337H625.76H618.76V120.735H625.76ZM625.76 42.9337V49.9337H651.702V42.9337V35.9337H625.76V42.9337ZM651.702 42.9337H644.702V120.735H651.702H658.702V42.9337H651.702ZM781.41 68.8675V75.8675H833.293V68.8675V61.8675H781.41V68.8675ZM833.293 68.8675H840.293V17H833.293H826.293V68.8675H833.293ZM833.293 17V24H859.234V17V10H833.293V17ZM859.234 17H852.234V146.669H859.234H866.234V17H859.234ZM859.234 146.669V139.669H833.293V146.669V153.669H859.234V146.669ZM833.293 146.669H840.293V94.8012H833.293H826.293V146.669H833.293ZM833.293 94.8012V87.8012H781.41V94.8012V101.801H833.293V94.8012ZM781.41 94.8012H774.41V146.669H781.41H788.41V94.8012H781.41ZM781.41 146.669V139.669H755.468V146.669V153.669H781.41V146.669ZM755.468 146.669H762.468V17H755.468H748.468V146.669H755.468ZM755.468 17V24H781.41V17V10H755.468V17ZM781.41 17H774.41V68.8675H781.41H788.41V17H781.41ZM963 42.9337V35.9337H937.059V42.9337V49.9337H963V42.9337ZM937.059 42.9337H930.059V146.669H937.059H944.059V42.9337H937.059ZM937.059 146.669V139.669H911.117V146.669V153.669H937.059V146.669ZM911.117 146.669H918.117V42.9337H911.117H904.117V146.669H911.117ZM911.117 42.9337V35.9337H885.176V42.9337V49.9337H911.117V42.9337ZM885.176 42.9337H892.176V17H885.176H878.176V42.9337H885.176ZM885.176 17V24H963V17V10H885.176V17ZM963 17H956V42.9337H963H970V17H963ZM418.229 120.735V113.735H392.287V120.735V127.735H418.229V120.735ZM392.287 120.735H399.287V42.9337H392.287H385.287V120.735H392.287ZM392.287 42.9337V49.9337H418.229V42.9337V35.9337H392.287V42.9337ZM418.229 42.9337H411.229V120.735H418.229H425.229V42.9337H418.229ZM184.755 94.8012V87.8012H158.814V94.8012V101.801H184.755V94.8012ZM158.814 94.8012H165.814V68.8675H158.814H151.814V94.8012H158.814ZM158.814 68.8675V75.8675H184.755V68.8675V61.8675H158.814V68.8675ZM184.755 68.8675H177.755V94.8012H184.755H191.755V68.8675H184.755ZM729.526 42.9337V35.9337H651.702V42.9337V49.9337H729.526V42.9337ZM651.702 42.9337H658.702V17H651.702H644.702V42.9337H651.702ZM651.702 17V24H729.526V17V10H651.702V17ZM729.526 17H722.526V42.9337H729.526H736.526V17H729.526Z" fill="#4340DE" mask="url(#path-1-outside-1_6_163)"/>
</g>
<path d="M42.9415 200.265H68.883V226.199H42.9415V304H17V174.331H42.9415V200.265Z" fill="white"/>
<path d="M146.708 304H120.766V226.199H94.8245V200.265H120.766V174.331H146.708V304Z" fill="white"/>
<path d="M250.473 304H198.59V278.066H250.473V304Z" fill="white"/>
<path d="M380.181 200.265H354.24V304H328.298V200.265H302.357V174.331H380.181V200.265Z" fill="white"/>
<path d="M483.947 304H432.064V278.066H483.947V304Z" fill="white"/>
<path d="M613.654 200.265H561.771V226.199H613.654V252.133H561.771V304H535.83V174.331H613.654V200.265Z" fill="white"/>
<path d="M639.596 304H613.654V252.133H639.596V304Z" fill="white"/>
<path d="M691.479 304H665.537V174.331H691.479V304Z" fill="white"/>
<path d="M795.245 304H717.42V278.066H795.245V304Z" fill="white"/>
<path d="M924.952 200.265H899.011V304H873.069V200.265H847.128V174.331H924.952V200.265Z" fill="white"/>
<path d="M198.59 278.066H172.649V200.265H198.59V278.066Z" fill="white"/>
<path d="M276.415 278.066H250.473V200.265H276.415V278.066Z" fill="white"/>
<path d="M432.064 278.066H406.122V200.265H432.064V278.066Z" fill="white"/>
<path d="M509.888 278.066H483.947V200.265H509.888V278.066Z" fill="white"/>
<path d="M821.186 278.066H795.245V252.133H821.186V278.066Z" fill="white"/>
<path d="M94.8245 252.133H68.883V226.199H94.8245V252.133Z" fill="white"/>
<path d="M795.245 252.133H743.362V226.199H795.245V252.133Z" fill="white"/>
<path d="M639.596 226.199H613.654V200.265H639.596V226.199Z" fill="white"/>
<path d="M743.362 226.199H717.42V200.265H743.362V226.199Z" fill="white"/>
<path d="M250.473 200.265H198.59V174.331H250.473V200.265Z" fill="white"/>
<path d="M483.947 200.265H432.064V174.331H483.947V200.265Z" fill="white"/>
<path d="M821.186 200.265H743.362V174.331H821.186V200.265Z" fill="white"/>
<path d="M132.872 42.9337H158.814V68.8675H132.872V146.669H106.931V17H132.872V42.9337Z" fill="white"/>
<path d="M236.638 146.669H210.697V68.8675H184.755V42.9337H210.697V17H236.638V146.669Z" fill="white"/>
<path d="M288.521 146.669H262.58V17H288.521V146.669Z" fill="white"/>
<path d="M392.287 42.9337H340.404V120.735H392.287V146.669H314.463V17H392.287V42.9337Z" fill="white"/>
<path d="M470.112 42.9337H496.053V68.8675H470.112V146.669H444.17V17H470.112V42.9337Z" fill="white"/>
<path d="M547.936 146.669H521.995V94.8012H496.053V68.8675H521.995V17H547.936V146.669Z" fill="white"/>
<path d="M599.819 146.669H573.878V17H599.819V146.669Z" fill="white"/>
<path d="M651.702 120.735H703.585V94.8012H677.643V68.8675H729.526V146.669H651.702V120.735H625.76V42.9337H651.702V120.735Z" fill="white"/>
<path d="M781.41 68.8675H833.293V17H859.234V146.669H833.293V94.8012H781.41V146.669H755.468V17H781.41V68.8675Z" fill="white"/>
<path d="M963 42.9337H937.059V146.669H911.117V42.9337H885.176V17H963V42.9337Z" fill="white"/>
<path d="M418.229 120.735H392.287V42.9337H418.229V120.735Z" fill="white"/>
<path d="M184.755 94.8012H158.814V68.8675H184.755V94.8012Z" fill="white"/>
<path d="M729.526 42.9337H651.702V17H729.526V42.9337Z" fill="white"/>
<defs>
<filter id="filter0_f_6_163" x="0" y="0" width="980" height="321" filterUnits="userSpaceOnUse" color-interpolation-filters="sRGB">
<feFlood flood-opacity="0" result="BackgroundImageFix"/>
<feBlend mode="normal" in="SourceGraphic" in2="BackgroundImageFix" result="shape"/>
<feGaussianBlur stdDeviation="5" result="effect1_foregroundBlur_6_163"/>
</filter>
</defs>
</svg>
